HIERARCHY
ROOT joint_Root
{
  OFFSET 0 0 0
  CHANNELS 6 Xposition Yposition Zposition Zrotation Xrotation Yrotation
  JOINT Hips
  {
    OFFSET 0 93.9241 -3
    CHANNELS 6 Xposition Yposition Zposition Zrotation Xrotation Yrotation
    JOINT Spine
    {
      OFFSET 15.7357 0 0
      CHANNELS 6 Xposition Yposition Zposition Zrotation Xrotation Yrotation
      JOINT Chest
      {
        OFFSET 8.98455 -0.406207 0
        CHANNELS 6 Xposition Yposition Zposition Zrotation Xrotation Yrotation
        JOINT Neck
        {
          OFFSET 16.3773 0 0
          CHANNELS 6 Xposition Yposition Zposition Zrotation Xrotation Yrotation
          JOINT Head
          {
            OFFSET 6.45672 0 0
            CHANNELS 6 Xposition Yposition Zposition Zrotation Xrotation Yrotation
            End Site
            {
              OFFSET 0 0 0
            }
          }
        }
        JOINT Shoulder_L
        {
          OFFSET 12.9942 -0.242716 4.98039
          CHANNELS 6 Xposition Yposition Zposition Zrotation Xrotation Yrotation
          JOINT UpperArm_L
          {
            OFFSET 5.34809 0 0
            CHANNELS 6 Xposition Yposition Zposition Zrotation Xrotation Yrotation
            JOINT LowerArm_L
            {
              OFFSET 24.3286 1.87007e-05 0
              CHANNELS 6 Xposition Yposition Zposition Zrotation Xrotation Yrotation
              JOINT Hand_L
              {
                OFFSET 22.2916 0 0
                CHANNELS 6 Xposition Yposition Zposition Zrotation Xrotation Yrotation
                End Site
                {
                  OFFSET 0 0 0
                }
              }
            }
          }
        }
        JOINT Shoulder_R
        {
          OFFSET 12.9945 -0.242716 -4.98039
          CHANNELS 6 Xposition Yposition Zposition Zrotation Xrotation Yrotation
          JOINT UpperArm_R
          {
            OFFSET -5.34813 0 0
            CHANNELS 6 Xposition Yposition Zposition Zrotation Xrotation Yrotation
            JOINT LowerArm_R
            {
              OFFSET -24.3289 0.000322201 0
              CHANNELS 6 Xposition Yposition Zposition Zrotation Xrotation Yrotation
              JOINT Hand_R
              {
                OFFSET -22.2915 -0.000108084 0
                CHANNELS 6 Xposition Yposition Zposition Zrotation Xrotation Yrotation
                End Site
                {
                  OFFSET 0 0 0
                }
              }
            }
          }
        }
      }
    }
    JOINT UpperLeg_L
    {
      OFFSET -2.19248 -6.46944 0
      CHANNELS 6 Xposition Yposition Zposition Zrotation Xrotation Yrotation
      JOINT LowerLeg_L
      {
        OFFSET 39.0811 0 -1.23785e-05
        CHANNELS 6 Xposition Yposition Zposition Zrotation Xrotation Yrotation
        JOINT Foot_L
        {
          OFFSET 40.9854 0 -1.26872e-05
          CHANNELS 6 Xposition Yposition Zposition Zrotation Xrotation Yrotation
          JOINT Toes_L
          {
            OFFSET 11.7543 0 0
            CHANNELS 6 Xposition Yposition Zposition Zrotation Xrotation Yrotation
            End Site
            {
              OFFSET 0 0 0
            }
          }
        }
      }
    }
    JOINT UpperLeg_R
    {
      OFFSET -2.19251 6.46944 0
      CHANNELS 6 Xposition Yposition Zposition Zrotation Xrotation Yrotation
      JOINT LowerLeg_R
      {
        OFFSET -39.0811 -0.00228153 -0.0401928
        CHANNELS 6 Xposition Yposition Zposition Zrotation Xrotation Yrotation
        JOINT Foot_R
        {
          OFFSET -40.9854 0 0
          CHANNELS 6 Xposition Yposition Zposition Zrotation Xrotation Yrotation
          JOINT Toes_R
          {
            OFFSET -11.7543 0 0
            CHANNELS 6 Xposition Yposition Zposition Zrotation Xrotation Yrotation
            End Site
            {
              OFFSET 0 0 0
            }
          }
        }
      }
    }
  }
}
MOTION
Frames:	4
Frame Time:	0.0333333
0 0 0 0 0 -0 -17.4583 90.3823 1.69784 75.3642 -69.9376 -11.1792 15.7357 5.1072e-06 -5.51765e-07 119.377 79.4939 -120.991 8.98455 -0.406207 -4.3199e-07 10.8167 10.192 -4.19904 16.3773 -1.3905e-06 -6.99897e-07 -1.58926 15.646 3.63751 6.45672 -1.25837e-06 -1.02172e-07 -0.297037 16.901 0.300932 12.9942 -0.242716 4.98039 -90.9294 3.88508 -91.5354 5.34809 -7.22636e-06 -6.2814e-07 -69.6743 -5.8243 11.5146 24.3286 1.87007e-05 4.90208e-06 3.23985 15.669 -11.8374 22.2916 -9.88446e-07 4.63217e-06 14.6409 5.45233 -4.72225 12.9945 -0.242716 -4.98039 90.0441 3.45897 -105.734 -5.34813 -1.25947e-06 -3.79883e-06 -69.0076 -6.80631 2.55476 -24.3289 0.000322201 -8.65921e-06 -4.63629 -13.1423 -19.6259 -22.2915 -0.000108084 -4.47941e-06 35.2578 5.67844 -23.1612 -2.19248 -6.46944 -1.22534e-07 -171.091 9.23568 -19.929 39.0811 -6.73843e-06 -1.23785e-05 -0.176829 0.0576683 69.3559 40.9854 -6.48686e-06 -1.26872e-05 -1.38705 -6.05785 -41.7728 11.7543 -2.30145e-07 3.05095e-06 0.422444 -0.510008 -21.4035 -2.19251 6.46944 -1.45247e-06 -168.344 11.4662 170.635 -39.0811 -0.00228153 -0.0401928 0.0845127 -0.0982627 27.571 -40.9854 7.72618e-06 5.99936e-06 5.53424 -8.69211 -67.3382 -11.7543 -5.6619e-06 -5.58687e-06 -0.158738 0.110475 -16.5723 
0 0 0 0 0 -0 -20.3042 90.4948 2.19127 77.1179 -71.2078 -10.0437 15.7357 5.1072e-06 -5.51765e-07 124.737 78.8743 -126.577 8.98455 -0.406207 -4.3199e-07 10.9177 12.5385 -4.89101 16.3773 -1.3905e-06 -6.99897e-07 -1.63317 15.8095 4.23704 6.45672 -1.25837e-06 -1.02172e-07 0.0984242 15.2378 1.32206 12.9942 -0.242716 4.98039 -91.0605 3.66149 -88.8355 5.34809 -7.22636e-06 -6.2814e-07 -67.665 -5.54985 17.6197 24.3286 1.87007e-05 4.90208e-06 3.46887 14.9599 -13.2151 22.2916 -9.88446e-07 4.63217e-06 13.577 5.44121 -4.32715 12.9945 -0.242716 -4.98039 90.1089 2.49554 -107.503 -5.34813 -1.25947e-06 -3.79883e-06 -66.9613 -10.3778 0.259071 -24.3289 0.000322201 -8.65921e-06 -5.48601 -12.8279 -23.3892 -22.2915 -0.000108084 -4.47941e-06 35.8436 5.67607 -23.7584 -2.19248 -6.46944 -1.22534e-07 -173.305 9.01021 -24.2895 39.0811 -6.73843e-06 -1.23785e-05 -0.239475 0.0874834 68.0256 40.9854 -6.48686e-06 -1.26872e-05 -0.277212 -8.19167 -45.007 11.7543 -2.30145e-07 3.05095e-06 0.403132 -0.484691 -21.1718 -2.19251 6.46944 -1.45247e-06 -169.241 10.9618 173.103 -39.0811 -0.00228153 -0.0401928 0.0627965 -0.0665234 26.2082 -40.9854 7.72618e-06 5.99936e-06 5.46277 -8.00616 -68.7777 -11.7543 -5.6619e-06 -5.58687e-06 -0.149585 0.105621 -16.5722 
0 0 0 0 0 -0 -23.0729 90.6214 2.69828 78.4293 -71.8977 -9.12548 15.7357 5.1072e-06 -5.51765e-07 128.796 78.2132 -130.697 8.98455 -0.406207 -4.3199e-07 11.1208 14.6068 -5.24681 16.3773 -1.3905e-06 -6.99897e-07 -1.61576 15.78 4.73594 6.45672 -1.25837e-06 -1.02172e-07 0.0848942 13.5177 2.47483 12.9942 -0.242716 4.98039 -91.1576 3.38863 -86.1257 5.34809 -7.22636e-06 -6.2814e-07 -65.0784 -4.65761 22.7759 24.3286 1.87007e-05 4.90208e-06 3.70215 14.1226 -14.8519 22.2916 -9.88446e-07 4.63217e-06 12.8357 5.43421 -4.0847 12.9945 -0.242716 -4.98039 90.1049 1.4482 -109.148 -5.34813 -1.25947e-06 -3.79883e-06 -65.0037 -14.2359 -0.644596 -24.3289 0.000322201 -8.65921e-06 -6.85829 -12.3854 -29.2735 -22.2915 -0.000108084 -4.47941e-06 36.2739 5.67511 -23.9596 -2.19248 -6.46944 -1.22534e-07 -174.935 9.47672 -27.2541 39.0811 -6.73843e-06 -1.23785e-05 -0.237303 0.111883 62.8933 40.9854 -6.48686e-06 -1.26872e-05 -0.265551 -8.79415 -48.136 11.7543 -2.30145e-07 3.05095e-06 0.394913 -0.474013 -21.0736 -2.19251 6.46944 -1.45247e-06 -170.038 11.4958 176.176 -39.0811 -0.00228153 -0.0401928 0.0401107 -0.0347521 23.8274 -40.9854 7.72618e-06 5.99936e-06 5.53196 -6.6747 -69.7349 -11.7543 -5.6619e-06 -5.58687e-06 -0.110092 0.0783326 -16.5726 
0 0 0 0 0 -0 -25.7891 90.7781 3.16284 78.179 -72.6016 -9.77514 15.7357 5.1072e-06 -5.51765e-07 132.25 77.5606 -134.027 8.98455 -0.406207 -4.3199e-07 11.2574 16.5501 -5.213 16.3773 -1.3905e-06 -6.99897e-07 -1.73278 15.8605 5.12079 6.45672 -1.25837e-06 -1.02172e-07 -0.293886 12.1995 3.11651 12.9942 -0.242716 4.98039 -91.1777 3.05977 -83.9357 5.34809 -7.22636e-06 -6.2814e-07 -62.0071 -5.23176 27.5184 24.3286 1.87007e-05 4.90208e-06 4.34914 14.3422 -17.0668 22.2916 -9.88446e-07 4.63217e-06 12.6196 5.44156 -4.34094 12.9945 -0.242716 -4.98039 90.0405 0.420732 -110.503 -5.34813 -1.25947e-06 -3.79883e-06 -62.7897 -16.3158 -0.89278 -24.3289 0.000322201 -8.65921e-06 -9.50367 -13.0795 -36.4876 -22.2915 -0.000108084 -4.47941e-06 37.0543 5.67503 -23.968 -2.19248 -6.46944 -1.22534e-07 -175.779 9.35464 -28.3372 39.0811 -6.73843e-06 -1.23785e-05 -0.167342 0.127023 53.4342 40.9854 -6.48686e-06 -1.26872e-05 -0.325609 -8.52758 -50.4426 11.7543 -2.30145e-07 3.05095e-06 0.40409 -0.485932 -21.1833 -2.19251 6.46944 -1.45247e-06 -170.293 12.0414 179.253 -39.0811 -0.00228153 -0.0401928 0.0433299 -0.0628232 20.9599 -40.9854 7.72618e-06 5.99936e-06 6.24744 -5.45542 -69.5002 -11.7543 -5.6619e-06 -5.58687e-06 -0.269238 -0.369189 -17.1033 
